{
	"asset":{
		"generator":"Khronos glTF Blender I/O v4.0.44",
		"version":"2.0"
	},
	"extensionsUsed":[
		"KHR_materials_specular",
		"KHR_materials_ior",
		"KHR_materials_transmission"
	],
	"scene":0,
	"scenes":[
		{
			"name":"Scene",
			"nodes":[
				0,
				1,
				2
			]
		}
	],
	"nodes":[
		{
			"mesh":0,
			"name":"Vinyl Record Sleeve"
		},
		{
			"mesh":1,
			"name":"Shrinkwrap",
			"scale":[
				1.003000020980835,
				1.003000020980835,
				1.003000020980835
			]
		},
		{
			"mesh":2,
			"name":"Vinyl Disk",
			"rotation":[
				0.7071068286895752,
				0,
				0,
				0.7071068286895752
			],
			"scale":[
				0.154200479388237,
				0.0013878046302124858,
				0.154200479388237
			],
			"translation":[
				0.3179583251476288,
				0,
				0
			]
		}
	],
	"materials":[
		{
			"doubleSided":true,
			"extensions":{
				"KHR_materials_specular":{
					"specularFactor":0.20000000298023224
				},
				"KHR_materials_ior":{
					"ior":1.4500000476837158
				}
			},
			"name":"Front",
			"pbrMetallicRoughness":{
				"baseColorTexture":{
					"index":0
				},
				"metallicFactor":0,
				"roughnessFactor":0.15000000596046448
			}
		},
		{
			"doubleSided":true,
			"extensions":{
				"KHR_materials_specular":{
					"specularFactor":0.20000000298023224
				},
				"KHR_materials_ior":{
					"ior":1.4500000476837158
				}
			},
			"name":"Back",
			"pbrMetallicRoughness":{
				"baseColorTexture":{
					"index":1
				},
				"metallicFactor":0,
				"roughnessFactor":0.15000000596046448
			}
		},
		{
			"doubleSided":true,
			"name":"Shrinkwrap",
			"pbrMetallicRoughness":{}
		},
		{
			"doubleSided":true,
			"name":"Vinyl Disk",
			"pbrMetallicRoughness":{
				"baseColorFactor":[
					0,
					0,
					0,
					1
				],
				"metallicFactor":0,
				"roughnessFactor":0.20000000298023224
			}
		},
		{
			"doubleSided":true,
			"extensions":{
				"KHR_materials_transmission":{
					"transmissionFactor":1
				},
				"KHR_materials_specular":{
					"specularFactor":0
				},
				"KHR_materials_ior":{
					"ior":1.0500000715255737
				}
			},
			"name":"Material",
			"pbrMetallicRoughness":{
				"baseColorFactor":[
					0,
					0,
					0,
					1
				],
				"metallicFactor":0,
				"roughnessFactor":0
			}
		},
		{
			"doubleSided":true,
			"name":"Material.002",
			"pbrMetallicRoughness":{
				"baseColorTexture":{
					"index":2
				},
				"metallicFactor":0,
				"roughnessFactor":0.5
			}
		}
	],
	"meshes":[
		{
			"name":"Cube",
			"primitives":[
				{
					"attributes":{
						"POSITION":0,
						"NORMAL":1,
						"TEXCOORD_0":2
					},
					"indices":3,
					"material":0
				},
				{
					"attributes":{
						"POSITION":4,
						"NORMAL":5,
						"TEXCOORD_0":6
					},
					"indices":7,
					"material":1
				}
			]
		},
		{
			"name":"Cube.001",
			"primitives":[
				{
					"attributes":{
						"POSITION":8,
						"NORMAL":9,
						"TEXCOORD_0":10
					},
					"indices":11,
					"material":2
				}
			]
		},
		{
			"name":"Cylinder",
			"primitives":[
				{
					"attributes":{
						"POSITION":12,
						"NORMAL":13,
						"TEXCOORD_0":14
					},
					"indices":15,
					"material":3
				},
				{
					"attributes":{
						"POSITION":16,
						"NORMAL":17,
						"TEXCOORD_0":18
					},
					"indices":19,
					"material":4
				},
				{
					"attributes":{
						"POSITION":20,
						"NORMAL":21,
						"TEXCOORD_0":22
					},
					"indices":23,
					"material":5
				}
			]
		}
	],
	"textures":[
		{
			"sampler":0,
			"source":0
		},
		{
			"sampler":0,
			"source":1
		},
		{
			"sampler":0,
			"source":1
		}
	],
	"images":[
		{
			"mimeType":"image/png",
			"name":"0d21a9ca837debc8d77eba68d5c74e51.1000x1000x1",
			"uri":"0d21a9ca837debc8d77eba68d5c74e51_1000x1000x1.png"
		},
		{
			"mimeType":"image/jpeg",
			"name":"5f00dbbcd8549ee01cfd3fe7d8d29e9e.1000x1000x1",
			"uri":"5f00dbbcd8549ee01cfd3fe7d8d29e9e_1000x1000x1.jpg"
		}
	],
	"accessors":[
		{
			"bufferView":0,
			"componentType":5126,
			"count":1758,
			"max":[
				0.15700000524520874,
				0.15700000524520874,
				0.0024999999441206455
			],
			"min":[
				-0.15700000524520874,
				-0.15700000524520874,
				-0.0024999999441206455
			],
			"type":"VEC3"
		},
		{
			"bufferView":1,
			"componentType":5126,
			"count":1758,
			"type":"VEC3"
		},
		{
			"bufferView":2,
			"componentType":5126,
			"count":1758,
			"type":"VEC2"
		},
		{
			"bufferView":3,
			"componentType":5123,
			"count":8142,
			"type":"SCALAR"
		},
		{
			"bufferView":4,
			"componentType":5126,
			"count":1156,
			"max":[
				0.15700000524520874,
				0.15700000524520874,
				-0.0024999999441206455
			],
			"min":[
				-0.15700000524520874,
				-0.15700000524520874,
				-0.0024999999441206455
			],
			"type":"VEC3"
		},
		{
			"bufferView":5,
			"componentType":5126,
			"count":1156,
			"type":"VEC3"
		},
		{
			"bufferView":6,
			"componentType":5126,
			"count":1156,
			"type":"VEC2"
		},
		{
			"bufferView":7,
			"componentType":5123,
			"count":6534,
			"type":"SCALAR"
		},
		{
			"bufferView":8,
			"componentType":5126,
			"count":2584,
			"max":[
				0.15700000524520874,
				0.15700000524520874,
				0.0024999999441206455
			],
			"min":[
				-0.15700000524520874,
				-0.15700000524520874,
				-0.0024999999441206455
			],
			"type":"VEC3"
		},
		{
			"bufferView":9,
			"componentType":5126,
			"count":2584,
			"type":"VEC3"
		},
		{
			"bufferView":10,
			"componentType":5126,
			"count":2584,
			"type":"VEC2"
		},
		{
			"bufferView":11,
			"componentType":5123,
			"count":13860,
			"type":"SCALAR"
		},
		{
			"bufferView":12,
			"componentType":5126,
			"count":2338,
			"max":[
				-0.024433858692646027,
				1.4323375225067139,
				1
			],
			"min":[
				-2.0244338512420654,
				-1.5043938159942627,
				-1
			],
			"type":"VEC3"
		},
		{
			"bufferView":13,
			"componentType":5126,
			"count":2338,
			"type":"VEC3"
		},
		{
			"bufferView":14,
			"componentType":5126,
			"count":2338,
			"type":"VEC2"
		},
		{
			"bufferView":15,
			"componentType":5123,
			"count":11712,
			"type":"SCALAR"
		},
		{
			"bufferView":16,
			"componentType":5126,
			"count":128,
			"max":[
				-0.669838547706604,
				1,
				0.3545953035354614
			],
			"min":[
				-1.3790291547775269,
				-1,
				-0.3545953035354614
			],
			"type":"VEC3"
		},
		{
			"bufferView":17,
			"componentType":5126,
			"count":128,
			"type":"VEC3"
		},
		{
			"bufferView":18,
			"componentType":5126,
			"count":128,
			"type":"VEC2"
		},
		{
			"bufferView":19,
			"componentType":5123,
			"count":384,
			"type":"SCALAR"
		},
		{
			"bufferView":20,
			"componentType":5126,
			"count":256,
			"max":[
				-0.6977167129516602,
				1,
				0.32671716809272766
			],
			"min":[
				-1.3511509895324707,
				-1,
				-0.32671716809272766
			],
			"type":"VEC3"
		},
		{
			"bufferView":21,
			"componentType":5126,
			"count":256,
			"type":"VEC3"
		},
		{
			"bufferView":22,
			"componentType":5126,
			"count":256,
			"type":"VEC2"
		},
		{
			"bufferView":23,
			"componentType":5123,
			"count":768,
			"type":"SCALAR"
		}
	],
	"bufferViews":[
		{
			"buffer":0,
			"byteLength":21096,
			"byteOffset":0,
			"target":34962
		},
		{
			"buffer":0,
			"byteLength":21096,
			"byteOffset":21096,
			"target":34962
		},
		{
			"buffer":0,
			"byteLength":14064,
			"byteOffset":42192,
			"target":34962
		},
		{
			"buffer":0,
			"byteLength":16284,
			"byteOffset":56256,
			"target":34963
		},
		{
			"buffer":0,
			"byteLength":13872,
			"byteOffset":72540,
			"target":34962
		},
		{
			"buffer":0,
			"byteLength":13872,
			"byteOffset":86412,
			"target":34962
		},
		{
			"buffer":0,
			"byteLength":9248,
			"byteOffset":100284,
			"target":34962
		},
		{
			"buffer":0,
			"byteLength":13068,
			"byteOffset":109532,
			"target":34963
		},
		{
			"buffer":0,
			"byteLength":31008,
			"byteOffset":122600,
			"target":34962
		},
		{
			"buffer":0,
			"byteLength":31008,
			"byteOffset":153608,
			"target":34962
		},
		{
			"buffer":0,
			"byteLength":20672,
			"byteOffset":184616,
			"target":34962
		},
		{
			"buffer":0,
			"byteLength":27720,
			"byteOffset":205288,
			"target":34963
		},
		{
			"buffer":0,
			"byteLength":28056,
			"byteOffset":233008,
			"target":34962
		},
		{
			"buffer":0,
			"byteLength":28056,
			"byteOffset":261064,
			"target":34962
		},
		{
			"buffer":0,
			"byteLength":18704,
			"byteOffset":289120,
			"target":34962
		},
		{
			"buffer":0,
			"byteLength":23424,
			"byteOffset":307824,
			"target":34963
		},
		{
			"buffer":0,
			"byteLength":1536,
			"byteOffset":331248,
			"target":34962
		},
		{
			"buffer":0,
			"byteLength":1536,
			"byteOffset":332784,
			"target":34962
		},
		{
			"buffer":0,
			"byteLength":1024,
			"byteOffset":334320,
			"target":34962
		},
		{
			"buffer":0,
			"byteLength":768,
			"byteOffset":335344,
			"target":34963
		},
		{
			"buffer":0,
			"byteLength":3072,
			"byteOffset":336112,
			"target":34962
		},
		{
			"buffer":0,
			"byteLength":3072,
			"byteOffset":339184,
			"target":34962
		},
		{
			"buffer":0,
			"byteLength":2048,
			"byteOffset":342256,
			"target":34962
		},
		{
			"buffer":0,
			"byteLength":1536,
			"byteOffset":344304,
			"target":34963
		}
	],
	"samplers":[
		{
			"magFilter":9729,
			"minFilter":9987
		}
	],
	"buffers":[
		{
			"byteLength":345840,
			"uri":"vinyl.bin"
		}
	]
}
