{
	"asset":{
		"generator":"Khronos glTF Blender I/O v4.0.44",
		"version":"2.0"
	},
	"extensionsUsed":[
		"KHR_materials_transmission",
		"KHR_materials_ior",
		"KHR_materials_specular"
	],
	"scene":0,
	"scenes":[
		{
			"name":"Scene",
			"nodes":[
				0,
				1,
				2,
				3,
				4,
				5,
				6,
				7,
				8,
				9,
				10,
				11
			]
		}
	],
	"nodes":[
		{
			"mesh":0,
			"name":"Cylinder.001",
			"rotation":[
				0,
				-0.7071068286895752,
				0,
				0.7071068286895752
			],
			"scale":[
				0.9010182619094849,
				0.9010182619094849,
				0.9010182619094849
			],
			"translation":[
				0.8417706489562988,
				0.18191559612751007,
				0.08711200952529907
			]
		},
		{
			"mesh":1,
			"name":"Cube.002",
			"rotation":[
				0,
				-0.7071068286895752,
				0,
				0.7071068286895752
			],
			"scale":[
				1,
				0.015460819937288761,
				1
			],
			"translation":[
				-1.1625375747680664,
				0.17812468111515045,
				0.08308142423629761
			]
		},
		{
			"mesh":2,
			"name":"Cube",
			"rotation":[
				0,
				-0.7071068286895752,
				0,
				0.7071068286895752
			],
			"scale":[
				1,
				0.050000011920928955,
				1
			],
			"translation":[
				0.8407034873962402,
				0.1527428776025772,
				0.08336454629898071
			]
		},
		{
			"mesh":3,
			"name":"Cylinder",
			"rotation":[
				0,
				-0.7071068286895752,
				0,
				0.7071068286895752
			],
			"translation":[
				0.8407034873962402,
				0.1527428776025772,
				0.08336454629898071
			]
		},
		{
			"mesh":4,
			"name":"Cylinder.006",
			"rotation":[
				0,
				0.7071065902709961,
				0,
				0.7071069478988647
			],
			"scale":[
				0.06960120797157288,
				0.06960120797157288,
				0.06960120797157288
			],
			"translation":[
				-1.8160250186920166,
				0.18486620485782623,
				-0.89323490858078
			]
		},
		{
			"mesh":5,
			"name":"Cylinder.007",
			"rotation":[
				0,
				0.7071065902709961,
				0,
				0.7071069478988647
			],
			"scale":[
				0.06960120797157288,
				0.06960120797157288,
				0.06960120797157288
			],
			"translation":[
				-0.3863486647605896,
				0.18486620485782623,
				-0.89323490858078
			]
		},
		{
			"mesh":6,
			"name":"Cylinder.008",
			"rotation":[
				0,
				-0.7071070671081543,
				0,
				0.7071064710617065
			],
			"scale":[
				0.06960120797157288,
				0.06960120797157288,
				0.06960120797157288
			],
			"translation":[
				-0.3863487243652344,
				0.18486620485782623,
				1.0639135837554932
			]
		},
		{
			"mesh":7,
			"name":"Cylinder.009",
			"rotation":[
				0,
				-0.7071070671081543,
				0,
				0.7071064710617065
			],
			"scale":[
				0.06960120797157288,
				0.06960120797157288,
				0.06960120797157288
			],
			"translation":[
				-1.8208497762680054,
				0.18486620485782623,
				1.063913345336914
			]
		},
		{
			"mesh":8,
			"name":"Plane",
			"scale":[
				0.9552204012870789,
				0.9552204012870789,
				0.9552204012870789
			],
			"translation":[
				-1.1463162899017334,
				0.17937101423740387,
				0.08371680974960327
			]
		},
		{
			"mesh":9,
			"name":"Cube.001",
			"rotation":[
				0,
				1,
				0,
				0
			],
			"scale":[
				-0.06999999284744263,
				-0.02119925618171692,
				-0.009999990463256836
			],
			"translation":[
				-0.20914636552333832,
				0.18120019137859344,
				1.073367953300476
			]
		},
		{
			"mesh":10,
			"name":"Cube.003",
			"rotation":[
				0,
				1,
				0,
				0
			],
			"scale":[
				-0.06999999284744263,
				-0.02119925618171692,
				-0.009999990463256836
			],
			"translation":[
				-0.20914636552333832,
				0.18120019137859344,
				-0.9069907665252686
			]
		},
		{
			"mesh":11,
			"name":"Cylinder.005",
			"rotation":[
				0,
				0.7071065902709961,
				0,
				0.7071069478988647
			],
			"scale":[
				0.06960120797157288,
				0.06960120797157288,
				0.06960120797157288
			],
			"translation":[
				3.014115810394287,
				0.18486620485782623,
				-0.8864229917526245
			]
		}
	],
	"materials":[
		{
			"alphaMode":"BLEND",
			"doubleSided":true,
			"extensions":{
				"KHR_materials_transmission":{
					"transmissionFactor":1
				},
				"KHR_materials_ior":{
					"ior":1.4500000476837158
				}
			},
			"name":"DVD Disk",
			"pbrMetallicRoughness":{
				"metallicFactor":0,
				"roughnessFactor":0
			}
		},
		{
			"doubleSided":true,
			"name":"Matte Black",
			"pbrMetallicRoughness":{
				"baseColorFactor":[
					0.007880124263465405,
					0.007880124263465405,
					0.007880124263465405,
					1
				],
				"metallicFactor":0,
				"roughnessFactor":0.20000000298023224
			}
		},
		{
			"doubleSided":true,
			"name":"CD-Rom Layer",
			"pbrMetallicRoughness":{}
		},
		{
			"alphaMode":"BLEND",
			"doubleSided":true,
			"extensions":{
				"KHR_materials_transmission":{
					"transmissionFactor":1
				},
				"KHR_materials_ior":{
					"ior":1.4500000476837158
				}
			},
			"name":"Plastic_Transparent",
			"pbrMetallicRoughness":{
				"baseColorFactor":[
					0.800000011920929,
					0.800000011920929,
					0.800000011920929,
					0.6000000238418579
				],
				"metallicFactor":0,
				"roughnessFactor":0.5
			}
		},
		{
			"doubleSided":true,
			"extensions":{
				"KHR_materials_specular":{
					"specularTexture":{
						"index":0,
						"texCoord":1
					}
				}
			},
			"name":"Plastic black material",
			"normalTexture":{
				"index":1,
				"texCoord":1
			},
			"pbrMetallicRoughness":{
				"baseColorTexture":{
					"index":2,
					"texCoord":1
				},
				"metallicRoughnessTexture":{
					"index":3,
					"texCoord":1
				}
			}
		},
		{
			"doubleSided":true,
			"name":"Material.001",
			"pbrMetallicRoughness":{
				"baseColorTexture":{
					"index":4
				},
				"metallicFactor":0,
				"roughnessFactor":0.5
			}
		}
	],
	"meshes":[
		{
			"name":"Cylinder.001",
			"primitives":[
				{
					"attributes":{
						"POSITION":0,
						"NORMAL":1,
						"TEXCOORD_0":2,
						"TEXCOORD_1":3
					},
					"indices":4,
					"material":0
				},
				{
					"attributes":{
						"POSITION":5,
						"NORMAL":6,
						"TEXCOORD_0":7,
						"TEXCOORD_1":8
					},
					"indices":9,
					"material":1
				},
				{
					"attributes":{
						"POSITION":10,
						"NORMAL":11,
						"TEXCOORD_0":12,
						"TEXCOORD_1":13
					},
					"indices":14,
					"material":2
				}
			]
		},
		{
			"name":"Cube.003",
			"primitives":[
				{
					"attributes":{
						"POSITION":15,
						"NORMAL":16,
						"TEXCOORD_0":17,
						"TEXCOORD_1":18
					},
					"indices":19,
					"material":3
				}
			]
		},
		{
			"name":"Cube.006",
			"primitives":[
				{
					"attributes":{
						"POSITION":20,
						"NORMAL":21,
						"TEXCOORD_0":22,
						"TEXCOORD_1":23
					},
					"indices":24,
					"material":4
				}
			]
		},
		{
			"name":"Cylinder.002",
			"primitives":[
				{
					"attributes":{
						"POSITION":25,
						"NORMAL":26,
						"TEXCOORD_0":27,
						"TEXCOORD_1":28
					},
					"indices":29,
					"material":4
				}
			]
		},
		{
			"name":"Cylinder.007",
			"primitives":[
				{
					"attributes":{
						"POSITION":30,
						"NORMAL":31,
						"TEXCOORD_0":32
					},
					"indices":33,
					"material":3
				}
			]
		},
		{
			"name":"Cylinder.008",
			"primitives":[
				{
					"attributes":{
						"POSITION":34,
						"NORMAL":35,
						"TEXCOORD_0":36
					},
					"indices":33,
					"material":3
				}
			]
		},
		{
			"name":"Cylinder.009",
			"primitives":[
				{
					"attributes":{
						"POSITION":37,
						"NORMAL":38,
						"TEXCOORD_0":39
					},
					"indices":33,
					"material":3
				}
			]
		},
		{
			"name":"Cylinder.010",
			"primitives":[
				{
					"attributes":{
						"POSITION":40,
						"NORMAL":41,
						"TEXCOORD_0":42
					},
					"indices":33,
					"material":3
				}
			]
		},
		{
			"name":"Plane.001",
			"primitives":[
				{
					"attributes":{
						"POSITION":43,
						"NORMAL":44,
						"TEXCOORD_0":45
					},
					"indices":46,
					"material":5
				}
			]
		},
		{
			"name":"Cube",
			"primitives":[
				{
					"attributes":{
						"POSITION":47,
						"NORMAL":48,
						"TEXCOORD_0":49,
						"TEXCOORD_1":50
					},
					"indices":51,
					"material":4
				}
			]
		},
		{
			"name":"Cube.002",
			"primitives":[
				{
					"attributes":{
						"POSITION":52,
						"NORMAL":53,
						"TEXCOORD_0":54,
						"TEXCOORD_1":55
					},
					"indices":51,
					"material":4
				}
			]
		},
		{
			"name":"Cylinder.011",
			"primitives":[
				{
					"attributes":{
						"POSITION":56,
						"NORMAL":57,
						"TEXCOORD_0":58,
						"TEXCOORD_1":59
					},
					"indices":60,
					"material":4
				}
			]
		}
	],
	"textures":[
		{
			"sampler":0,
			"source":0
		},
		{
			"sampler":0,
			"source":1
		},
		{
			"sampler":0,
			"source":2
		},
		{
			"sampler":0,
			"source":3
		},
		{
			"sampler":0,
			"source":4
		}
	],
	"images":[
		{
			"mimeType":"image/png",
			"name":"plastic_specular",
			"uri":"plastic_specular.png"
		},
		{
			"mimeType":"image/jpeg",
			"name":"plastic_normal_opengl",
			"uri":"plastic_normal_opengl.jpg"
		},
		{
			"mimeType":"image/jpeg",
			"name":"plastic_diffuse",
			"uri":"plastic_diffuse.jpg"
		},
		{
			"mimeType":"image/png",
			"name":"plastic_metallic-plastic_glossiness",
			"uri":"plastic_metallic-plastic_glossiness.png"
		},
		{
			"mimeType":"image/jpeg",
			"name":"m1000x1000-19",
			"uri":"m1000x1000-19.jpg"
		}
	],
	"accessors":[
		{
			"bufferView":0,
			"componentType":5126,
			"count":7541,
			"max":[
				1,
				0.010352317243814468,
				1
			],
			"min":[
				-1,
				-0.010000007227063179,
				-1
			],
			"type":"VEC3"
		},
		{
			"bufferView":1,
			"componentType":5126,
			"count":7541,
			"type":"VEC3"
		},
		{
			"bufferView":2,
			"componentType":5126,
			"count":7541,
			"type":"VEC2"
		},
		{
			"bufferView":3,
			"componentType":5126,
			"count":7541,
			"type":"VEC2"
		},
		{
			"bufferView":4,
			"componentType":5123,
			"count":28098,
			"type":"SCALAR"
		},
		{
			"bufferView":5,
			"componentType":5126,
			"count":128,
			"max":[
				0.9797032475471497,
				0.009999999776482582,
				0.9797032475471497
			],
			"min":[
				-0.9797032475471497,
				0.009999999776482582,
				-0.9797032475471497
			],
			"type":"VEC3"
		},
		{
			"bufferView":6,
			"componentType":5126,
			"count":128,
			"type":"VEC3"
		},
		{
			"bufferView":7,
			"componentType":5126,
			"count":128,
			"type":"VEC2"
		},
		{
			"bufferView":8,
			"componentType":5126,
			"count":128,
			"type":"VEC2"
		},
		{
			"bufferView":9,
			"componentType":5123,
			"count":384,
			"type":"SCALAR"
		},
		{
			"bufferView":10,
			"componentType":5126,
			"count":128,
			"max":[
				0.9749031662940979,
				-0.010000007227063179,
				0.9749032258987427
			],
			"min":[
				-0.9749032258987427,
				-0.010000007227063179,
				-0.9749032258987427
			],
			"type":"VEC3"
		},
		{
			"bufferView":11,
			"componentType":5126,
			"count":128,
			"type":"VEC3"
		},
		{
			"bufferView":12,
			"componentType":5126,
			"count":128,
			"type":"VEC2"
		},
		{
			"bufferView":13,
			"componentType":5126,
			"count":128,
			"type":"VEC2"
		},
		{
			"bufferView":14,
			"componentType":5123,
			"count":384,
			"type":"SCALAR"
		},
		{
			"bufferView":15,
			"componentType":5126,
			"count":40,
			"max":[
				1,
				1,
				1
			],
			"min":[
				-1,
				-1,
				-1
			],
			"type":"VEC3"
		},
		{
			"bufferView":16,
			"componentType":5126,
			"count":40,
			"type":"VEC3"
		},
		{
			"bufferView":17,
			"componentType":5126,
			"count":40,
			"type":"VEC2"
		},
		{
			"bufferView":18,
			"componentType":5126,
			"count":40,
			"type":"VEC2"
		},
		{
			"bufferView":19,
			"componentType":5123,
			"count":60,
			"type":"SCALAR"
		},
		{
			"bufferView":20,
			"componentType":5126,
			"count":48,
			"max":[
				1,
				1,
				1
			],
			"min":[
				-1,
				-1,
				-0.9936132431030273
			],
			"type":"VEC3"
		},
		{
			"bufferView":21,
			"componentType":5126,
			"count":48,
			"type":"VEC3"
		},
		{
			"bufferView":22,
			"componentType":5126,
			"count":48,
			"type":"VEC2"
		},
		{
			"bufferView":23,
			"componentType":5126,
			"count":48,
			"type":"VEC2"
		},
		{
			"bufferView":24,
			"componentType":5123,
			"count":84,
			"type":"SCALAR"
		},
		{
			"bufferView":25,
			"componentType":5126,
			"count":8347,
			"max":[
				0.9518313407897949,
				0.05512227863073349,
				0.9518313407897949
			],
			"min":[
				-0.9518313407897949,
				-0.056018244475126266,
				-0.8692525029182434
			],
			"type":"VEC3"
		},
		{
			"bufferView":26,
			"componentType":5126,
			"count":8347,
			"type":"VEC3"
		},
		{
			"bufferView":27,
			"componentType":5126,
			"count":8347,
			"type":"VEC2"
		},
		{
			"bufferView":28,
			"componentType":5126,
			"count":8347,
			"type":"VEC2"
		},
		{
			"bufferView":29,
			"componentType":5123,
			"count":28740,
			"type":"SCALAR"
		},
		{
			"bufferView":30,
			"componentType":5126,
			"count":99,
			"max":[
				0,
				0.0732712671160698,
				1
			],
			"min":[
				-1,
				-0.07325173914432526,
				-1
			],
			"type":"VEC3"
		},
		{
			"bufferView":31,
			"componentType":5126,
			"count":99,
			"type":"VEC3"
		},
		{
			"bufferView":32,
			"componentType":5126,
			"count":99,
			"type":"VEC2"
		},
		{
			"bufferView":33,
			"componentType":5123,
			"count":285,
			"type":"SCALAR"
		},
		{
			"bufferView":34,
			"componentType":5126,
			"count":99,
			"max":[
				0,
				0.0732712671160698,
				1
			],
			"min":[
				-1,
				-0.07325173914432526,
				-1
			],
			"type":"VEC3"
		},
		{
			"bufferView":35,
			"componentType":5126,
			"count":99,
			"type":"VEC3"
		},
		{
			"bufferView":36,
			"componentType":5126,
			"count":99,
			"type":"VEC2"
		},
		{
			"bufferView":37,
			"componentType":5126,
			"count":99,
			"max":[
				0,
				0.0732712671160698,
				1
			],
			"min":[
				-1,
				-0.07325173914432526,
				-1
			],
			"type":"VEC3"
		},
		{
			"bufferView":38,
			"componentType":5126,
			"count":99,
			"type":"VEC3"
		},
		{
			"bufferView":39,
			"componentType":5126,
			"count":99,
			"type":"VEC2"
		},
		{
			"bufferView":40,
			"componentType":5126,
			"count":99,
			"max":[
				0,
				0.0732712671160698,
				1
			],
			"min":[
				-1,
				-0.07325173914432526,
				-1
			],
			"type":"VEC3"
		},
		{
			"bufferView":41,
			"componentType":5126,
			"count":99,
			"type":"VEC3"
		},
		{
			"bufferView":42,
			"componentType":5126,
			"count":99,
			"type":"VEC2"
		},
		{
			"bufferView":43,
			"componentType":5126,
			"count":4,
			"max":[
				1,
				0,
				1
			],
			"min":[
				-1,
				0,
				-1
			],
			"type":"VEC3"
		},
		{
			"bufferView":44,
			"componentType":5126,
			"count":4,
			"type":"VEC3"
		},
		{
			"bufferView":45,
			"componentType":5126,
			"count":4,
			"type":"VEC2"
		},
		{
			"bufferView":46,
			"componentType":5123,
			"count":6,
			"type":"SCALAR"
		},
		{
			"bufferView":47,
			"componentType":5126,
			"count":24,
			"max":[
				1,
				1,
				1
			],
			"min":[
				-1,
				-1,
				-1
			],
			"type":"VEC3"
		},
		{
			"bufferView":48,
			"componentType":5126,
			"count":24,
			"type":"VEC3"
		},
		{
			"bufferView":49,
			"componentType":5126,
			"count":24,
			"type":"VEC2"
		},
		{
			"bufferView":50,
			"componentType":5126,
			"count":24,
			"type":"VEC2"
		},
		{
			"bufferView":51,
			"componentType":5123,
			"count":36,
			"type":"SCALAR"
		},
		{
			"bufferView":52,
			"componentType":5126,
			"count":24,
			"max":[
				1,
				1,
				1
			],
			"min":[
				-1,
				-1,
				-1
			],
			"type":"VEC3"
		},
		{
			"bufferView":53,
			"componentType":5126,
			"count":24,
			"type":"VEC3"
		},
		{
			"bufferView":54,
			"componentType":5126,
			"count":24,
			"type":"VEC2"
		},
		{
			"bufferView":55,
			"componentType":5126,
			"count":24,
			"type":"VEC2"
		},
		{
			"bufferView":56,
			"componentType":5126,
			"count":1564,
			"max":[
				0.20560646057128906,
				-0.32075437903404236,
				-19.520681381225586
			],
			"min":[
				-28.15888023376465,
				-0.6852866411209106,
				-42.115455627441406
			],
			"type":"VEC3"
		},
		{
			"bufferView":57,
			"componentType":5126,
			"count":1564,
			"type":"VEC3"
		},
		{
			"bufferView":58,
			"componentType":5126,
			"count":1564,
			"type":"VEC2"
		},
		{
			"bufferView":59,
			"componentType":5126,
			"count":1564,
			"type":"VEC2"
		},
		{
			"bufferView":60,
			"componentType":5123,
			"count":2724,
			"type":"SCALAR"
		}
	],
	"bufferViews":[
		{
			"buffer":0,
			"byteLength":90492,
			"byteOffset":0,
			"target":34962
		},
		{
			"buffer":0,
			"byteLength":90492,
			"byteOffset":90492,
			"target":34962
		},
		{
			"buffer":0,
			"byteLength":60328,
			"byteOffset":180984,
			"target":34962
		},
		{
			"buffer":0,
			"byteLength":60328,
			"byteOffset":241312,
			"target":34962
		},
		{
			"buffer":0,
			"byteLength":56196,
			"byteOffset":301640,
			"target":34963
		},
		{
			"buffer":0,
			"byteLength":1536,
			"byteOffset":357836,
			"target":34962
		},
		{
			"buffer":0,
			"byteLength":1536,
			"byteOffset":359372,
			"target":34962
		},
		{
			"buffer":0,
			"byteLength":1024,
			"byteOffset":360908,
			"target":34962
		},
		{
			"buffer":0,
			"byteLength":1024,
			"byteOffset":361932,
			"target":34962
		},
		{
			"buffer":0,
			"byteLength":768,
			"byteOffset":362956,
			"target":34963
		},
		{
			"buffer":0,
			"byteLength":1536,
			"byteOffset":363724,
			"target":34962
		},
		{
			"buffer":0,
			"byteLength":1536,
			"byteOffset":365260,
			"target":34962
		},
		{
			"buffer":0,
			"byteLength":1024,
			"byteOffset":366796,
			"target":34962
		},
		{
			"buffer":0,
			"byteLength":1024,
			"byteOffset":367820,
			"target":34962
		},
		{
			"buffer":0,
			"byteLength":768,
			"byteOffset":368844,
			"target":34963
		},
		{
			"buffer":0,
			"byteLength":480,
			"byteOffset":369612,
			"target":34962
		},
		{
			"buffer":0,
			"byteLength":480,
			"byteOffset":370092,
			"target":34962
		},
		{
			"buffer":0,
			"byteLength":320,
			"byteOffset":370572,
			"target":34962
		},
		{
			"buffer":0,
			"byteLength":320,
			"byteOffset":370892,
			"target":34962
		},
		{
			"buffer":0,
			"byteLength":120,
			"byteOffset":371212,
			"target":34963
		},
		{
			"buffer":0,
			"byteLength":576,
			"byteOffset":371332,
			"target":34962
		},
		{
			"buffer":0,
			"byteLength":576,
			"byteOffset":371908,
			"target":34962
		},
		{
			"buffer":0,
			"byteLength":384,
			"byteOffset":372484,
			"target":34962
		},
		{
			"buffer":0,
			"byteLength":384,
			"byteOffset":372868,
			"target":34962
		},
		{
			"buffer":0,
			"byteLength":168,
			"byteOffset":373252,
			"target":34963
		},
		{
			"buffer":0,
			"byteLength":100164,
			"byteOffset":373420,
			"target":34962
		},
		{
			"buffer":0,
			"byteLength":100164,
			"byteOffset":473584,
			"target":34962
		},
		{
			"buffer":0,
			"byteLength":66776,
			"byteOffset":573748,
			"target":34962
		},
		{
			"buffer":0,
			"byteLength":66776,
			"byteOffset":640524,
			"target":34962
		},
		{
			"buffer":0,
			"byteLength":57480,
			"byteOffset":707300,
			"target":34963
		},
		{
			"buffer":0,
			"byteLength":1188,
			"byteOffset":764780,
			"target":34962
		},
		{
			"buffer":0,
			"byteLength":1188,
			"byteOffset":765968,
			"target":34962
		},
		{
			"buffer":0,
			"byteLength":792,
			"byteOffset":767156,
			"target":34962
		},
		{
			"buffer":0,
			"byteLength":570,
			"byteOffset":767948,
			"target":34963
		},
		{
			"buffer":0,
			"byteLength":1188,
			"byteOffset":768520,
			"target":34962
		},
		{
			"buffer":0,
			"byteLength":1188,
			"byteOffset":769708,
			"target":34962
		},
		{
			"buffer":0,
			"byteLength":792,
			"byteOffset":770896,
			"target":34962
		},
		{
			"buffer":0,
			"byteLength":1188,
			"byteOffset":771688,
			"target":34962
		},
		{
			"buffer":0,
			"byteLength":1188,
			"byteOffset":772876,
			"target":34962
		},
		{
			"buffer":0,
			"byteLength":792,
			"byteOffset":774064,
			"target":34962
		},
		{
			"buffer":0,
			"byteLength":1188,
			"byteOffset":774856,
			"target":34962
		},
		{
			"buffer":0,
			"byteLength":1188,
			"byteOffset":776044,
			"target":34962
		},
		{
			"buffer":0,
			"byteLength":792,
			"byteOffset":777232,
			"target":34962
		},
		{
			"buffer":0,
			"byteLength":48,
			"byteOffset":778024,
			"target":34962
		},
		{
			"buffer":0,
			"byteLength":48,
			"byteOffset":778072,
			"target":34962
		},
		{
			"buffer":0,
			"byteLength":32,
			"byteOffset":778120,
			"target":34962
		},
		{
			"buffer":0,
			"byteLength":12,
			"byteOffset":778152,
			"target":34963
		},
		{
			"buffer":0,
			"byteLength":288,
			"byteOffset":778164,
			"target":34962
		},
		{
			"buffer":0,
			"byteLength":288,
			"byteOffset":778452,
			"target":34962
		},
		{
			"buffer":0,
			"byteLength":192,
			"byteOffset":778740,
			"target":34962
		},
		{
			"buffer":0,
			"byteLength":192,
			"byteOffset":778932,
			"target":34962
		},
		{
			"buffer":0,
			"byteLength":72,
			"byteOffset":779124,
			"target":34963
		},
		{
			"buffer":0,
			"byteLength":288,
			"byteOffset":779196,
			"target":34962
		},
		{
			"buffer":0,
			"byteLength":288,
			"byteOffset":779484,
			"target":34962
		},
		{
			"buffer":0,
			"byteLength":192,
			"byteOffset":779772,
			"target":34962
		},
		{
			"buffer":0,
			"byteLength":192,
			"byteOffset":779964,
			"target":34962
		},
		{
			"buffer":0,
			"byteLength":18768,
			"byteOffset":780156,
			"target":34962
		},
		{
			"buffer":0,
			"byteLength":18768,
			"byteOffset":798924,
			"target":34962
		},
		{
			"buffer":0,
			"byteLength":12512,
			"byteOffset":817692,
			"target":34962
		},
		{
			"buffer":0,
			"byteLength":12512,
			"byteOffset":830204,
			"target":34962
		},
		{
			"buffer":0,
			"byteLength":5448,
			"byteOffset":842716,
			"target":34963
		}
	],
	"samplers":[
		{
			"magFilter":9729,
			"minFilter":9987
		}
	],
	"buffers":[
		{
			"byteLength":848164,
			"uri":"r.bin"
		}
	]
}
